HIERARCHY
ROOT hip
{
OFFSET -0.38 87.36 -0.27
CHANNELS 6 Xposition Yposition Zposition Zrotation Xrotation Yrotation
JOINT abdomen
{
OFFSET 0 7.23 0
CHANNELS 6 Xposition Yposition Zposition Zrotation Xrotation Yrotation
JOINT chest
{
OFFSET 0 16.54 0
CHANNELS 6 Xposition Yposition Zposition Zrotation Xrotation Yrotation
JOINT neck
{
OFFSET 0 34.21 0
CHANNELS 6 Xposition Yposition Zposition Zrotation Xrotation Yrotation
JOINT head
{
OFFSET 0 6.29 0
CHANNELS 6 Xposition Yposition Zposition Zrotation Xrotation Yrotation
End Site
{
OFFSET 0 21.21 0
}
}
}
JOINT lCollar
{
OFFSET 4.06 26.61 -1.12
CHANNELS 6 Xposition Yposition Zposition Zrotation Xrotation Yrotation
JOINT lShldr
{
OFFSET 14.17 0 0
CHANNELS 6 Xposition Yposition Zposition Zrotation Xrotation Yrotation
JOINT lForeArm
{
OFFSET 26.12 0 0
CHANNELS 6 Xposition Yposition Zposition Zrotation Xrotation Yrotation
JOINT lHand
{
OFFSET 27.71 0 0
CHANNELS 6 Xposition Yposition Zposition Zrotation Xrotation Yrotation
JOINT lThumb1
{
OFFSET 2.29 -0.46 1.83
CHANNELS 6 Xposition Yposition Zposition Zrotation Xrotation Yrotation
JOINT lThumb2
{
OFFSET 5.29 0 0
CHANNELS 6 Xposition Yposition Zposition Zrotation Xrotation Yrotation
JOINT lThumb3
{
OFFSET 3.01 0 0
CHANNELS 6 Xposition Yposition Zposition Zrotation Xrotation Yrotation
End Site
{
OFFSET 2.62 0 0
}
}
}
}
JOINT lIndex1
{
OFFSET 9.37 0.29 2.59
CHANNELS 6 Xposition Yposition Zposition Zrotation Xrotation Yrotation
JOINT lIndex2
{
OFFSET 4.34 0 0
CHANNELS 6 Xposition Yposition Zposition Zrotation Xrotation Yrotation
JOINT lIndex3
{
OFFSET 2.16 0 0
CHANNELS 6 Xposition Yposition Zposition Zrotation Xrotation Yrotation
End Site
{
OFFSET 2.20 0 0
}
}
}
}
JOINT lMid1
{
OFFSET 9.47 0.83 0.29
CHANNELS 6 Xposition Yposition Zposition Zrotation Xrotation Yrotation
JOINT lMid2
{
OFFSET 4.77 0 0
CHANNELS 6 Xposition Yposition Zposition Zrotation Xrotation Yrotation
JOINT lMid3
{
OFFSET 2.87 0 0
CHANNELS 6 Xposition Yposition Zposition Zrotation Xrotation Yrotation
End Site
{
OFFSET 2.09 0 0
}
}
}
}
JOINT lRing1
{
OFFSET 8.65 1.01 -1.70
CHANNELS 6 Xposition Yposition Zposition Zrotation Xrotation Yrotation
JOINT lRing2
{
OFFSET 4.54 0 0
CHANNELS 6 Xposition Yposition Zposition Zrotation Xrotation Yrotation
JOINT lRing3
{
OFFSET 2.50 0 0
CHANNELS 6 Xposition Yposition Zposition Zrotation Xrotation Yrotation
End Site
{
OFFSET 2.20 0 0
}
}
}
}
JOINT lPinky1
{
OFFSET 7.69 0.66 -3.90
CHANNELS 6 Xposition Yposition Zposition Zrotation Xrotation Yrotation
JOINT lPinky2
{
OFFSET 3.21 0 0
CHANNELS 6 Xposition Yposition Zposition Zrotation Xrotation Yrotation
JOINT lPinky3
{
OFFSET 1.92 0 0
CHANNELS 6 Xposition Yposition Zposition Zrotation Xrotation Yrotation
End Site
{
OFFSET 1.78 0 0
}
}
}
}
}
}
}
}
JOINT rCollar
{
OFFSET -4.06 26.61 -1.12
CHANNELS 6 Xposition Yposition Zposition Zrotation Xrotation Yrotation
JOINT rShldr
{
OFFSET -14.17 0 0
CHANNELS 6 Xposition Yposition Zposition Zrotation Xrotation Yrotation
JOINT rForeArm
{
OFFSET -26.12 0 0
CHANNELS 6 Xposition Yposition Zposition Zrotation Xrotation Yrotation
JOINT rHand
{
OFFSET -27.71 0 0
CHANNELS 6 Xposition Yposition Zposition Zrotation Xrotation Yrotation
JOINT rThumb1
{
OFFSET -2.29 -0.46 1.83
CHANNELS 6 Xposition Yposition Zposition Zrotation Xrotation Yrotation
JOINT rThumb2
{
OFFSET -5.29 0 0
CHANNELS 6 Xposition Yposition Zposition Zrotation Xrotation Yrotation
JOINT rThumb3
{
OFFSET -3.01 0 0
CHANNELS 6 Xposition Yposition Zposition Zrotation Xrotation Yrotation
End Site
{
OFFSET -2.62 0 0
}
}
}
}
JOINT rIndex1
{
OFFSET -9.37 0.29 2.59
CHANNELS 6 Xposition Yposition Zposition Zrotation Xrotation Yrotation
JOINT rIndex2
{
OFFSET -4.34 0 0
CHANNELS 6 Xposition Yposition Zposition Zrotation Xrotation Yrotation
JOINT rIndex3
{
OFFSET -2.16 0 0
CHANNELS 6 Xposition Yposition Zposition Zrotation Xrotation Yrotation
End Site
{
OFFSET -2.20 0 0
}
}
}
}
JOINT rMid1
{
OFFSET -9.47 0.83 0.29
CHANNELS 6 Xposition Yposition Zposition Zrotation Xrotation Yrotation
JOINT rMid2
{
OFFSET -4.77 0 0
CHANNELS 6 Xposition Yposition Zposition Zrotation Xrotation Yrotation
JOINT rMid3
{
OFFSET -2.87 0 0
CHANNELS 6 Xposition Yposition Zposition Zrotation Xrotation Yrotation
End Site
{
OFFSET -2.09 0 0
}
}
}
}
JOINT rRing1
{
OFFSET -8.65 1.01 -1.70
CHANNELS 6 Xposition Yposition Zposition Zrotation Xrotation Yrotation
JOINT rRing2
{
OFFSET -4.54 0 0
CHANNELS 6 Xposition Yposition Zposition Zrotation Xrotation Yrotation
JOINT rRing3
{
OFFSET -2.50 0 0
CHANNELS 6 Xposition Yposition Zposition Zrotation Xrotation Yrotation
End Site
{
OFFSET -2.20 0 0
}
}
}
}
JOINT rPinky1
{
OFFSET -7.69 0.66 -3.90
CHANNELS 6 Xposition Yposition Zposition Zrotation Xrotation Yrotation
JOINT rPinky2
{
OFFSET -3.21 0 0
CHANNELS 6 Xposition Yposition Zposition Zrotation Xrotation Yrotation
JOINT rPinky3
{
OFFSET -1.92 0 0
CHANNELS 6 Xposition Yposition Zposition Zrotation Xrotation Yrotation
End Site
{
OFFSET -1.78 0 0
}
}
}
}
}
}
}
}
}
}
JOINT lThigh
{
OFFSET 8.73 -0 0
CHANNELS 6 Xposition Yposition Zposition Zrotation Xrotation Yrotation
JOINT lShin
{
OFFSET 0 -46.66 0
CHANNELS 6 Xposition Yposition Zposition Zrotation Xrotation Yrotation
JOINT lFoot
{
OFFSET 0 -40.14 0
CHANNELS 6 Xposition Yposition Zposition Zrotation Xrotation Yrotation
JOINT lToes
{
OFFSET 0 -8.88 14.22
CHANNELS 6 Xposition Yposition Zposition Zrotation Xrotation Yrotation
End Site
{
OFFSET 0 0 6.29
}
}
}
}
}
JOINT rThigh
{
OFFSET -8.73 0 -0
CHANNELS 6 Xposition Yposition Zposition Zrotation Xrotation Yrotation
JOINT rShin
{
OFFSET 0 -46.66 0
CHANNELS 6 Xposition Yposition Zposition Zrotation Xrotation Yrotation
JOINT rFoot
{
OFFSET 0 -40.14 0
CHANNELS 6 Xposition Yposition Zposition Zrotation Xrotation Yrotation
JOINT rToes
{
OFFSET 0 -8.88 14.22
CHANNELS 6 Xposition Yposition Zposition Zrotation Xrotation Yrotation
End Site
{
OFFSET 0 0 6.29
}
}
}
}
}
}
MOTION
Frames: 4
Frame Time: 0.03
0.21 87.88 0.71 -0.60 3.96 5.36 0 7.23 0 -1.41 6.56 -2.66 0 16.54 0 0.12 15.00 -5.68 0 34.21 0 2.61 22.89 -1.19 0 6.29 0 4.15 -36.76 -1.06 4.06 26.61 -1.12 -5.20 -3.48 -1.06 14.17 0 0 -64.35 3.41 2.01 26.12 0 0 -2.87 10.82 -91.17 27.71 0 0 -1.00 -0.07 -23.74 2.29 -0.46 1.83 52.29 56.96 -87.85 5.29 0 0 -14.09 2.06 5.86 3.01 0 0 12.48 -0 0 9.37 0.29 2.59 -68.06 1.07 -1.57 4.34 0 0 -81.08 -1.51 -0.24 2.16 0 0 -2.16 0 0 9.47 0.83 0.29 -71.59 -3.37 -1.07 4.77 0 0 -74.75 -2.46 2.59 2.87 0 0 3.95 0.07 0.39 8.65 1.01 -1.70 -75.42 -4.60 1.65 4.54 0 0 -77.52 1.98 -1.66 2.50 0 0 6.76 0 -0 7.69 0.66 -3.90 -80.40 -22.35 2.26 3.21 0 0 -85.74 -6.38 11.47 1.92 0 0 4.41 0 0 -4.06 26.61 -1.12 3.16 -3.94 -2.03 -14.17 0 0 60.32 4.29 -32.01 -26.12 0 0 5.01 12.73 72.84 -27.71 0 0 10.10 -4.00 23.16 -2.29 -0.46 1.83 -51.84 65.26 87.22 -5.29 0 0 18.61 1.54 -7.20 -3.01 0 0 -12.48 -0 0 -9.37 0.29 2.59 66.95 0.96 -6.16 -4.34 0 0 91.44 -2.68 -0.46 -2.16 0 0 2.16 0 0 -9.47 0.83 0.29 72.24 -4.49 -1.49 -4.77 0 0 85.02 -3.97 -3.66 -2.87 0 0 -3.95 0.07 -0.39 -8.65 1.01 -1.70 79.70 -3.25 -1.16 -4.54 0 0 87.78 3.57 2.98 -2.50 0 0 -6.76 0 0 -7.69 0.66 -3.90 92.50 -19.38 0.33 -3.21 0 0 96.74 -5.04 -9.12 -1.92 0 0 -4.41 0 0 8.73 -0 0 -3.03 -2.47 10.07 0 -46.66 0 8.41 38.61 -8.04 0 -40.14 0 0.87 -39.27 8.96 0 -8.88 14.22 0 0 0 -8.73 0 -0 -9.77 -42.46 -16.02 0 -46.66 0 -164.24 74.92 155.38 0 -40.14 0 -0.31 -4.60 -7.89 0 -8.88 14.22 0 0 0 
0.05 90.98 1.74 -2.56 4.92 3.66 0 7.23 0 0.50 5.71 -4.92 0 16.54 0 3.35 13.17 -10.17 0 34.21 0 -2.03 23.70 1.91 0 6.29 0 3.76 -36.15 2.75 4.06 26.61 -1.12 -5.03 -3.45 -1.25 14.17 0 0 -64.13 1.27 0.98 26.12 0 0 -3.52 7.64 -97.85 27.71 0 0 -0.76 -0.07 -24.20 2.29 -0.46 1.83 52.29 56.96 -87.85 5.29 0 0 -14.09 2.06 5.86 3.01 0 0 12.48 -0 0 9.37 0.29 2.59 -70.23 1.13 -1.52 4.34 0 0 -83.25 -1.50 -0.35 2.16 0 0 -2.16 0 0 9.47 0.83 0.29 -73.76 -3.33 -1.08 4.77 0 0 -76.92 -2.56 2.58 2.87 0 0 3.95 0.07 0.39 8.65 1.01 -1.70 -77.60 -4.66 1.40 4.54 0 0 -79.69 2.04 -1.64 2.50 0 0 6.76 0 -0 7.69 0.66 -3.90 -82.71 -22.43 1.77 3.21 0 0 -87.83 -6.81 11.69 1.92 0 0 4.41 0 0 -4.06 26.61 -1.12 0.79 -3.98 -3.62 -14.17 0 0 55.30 5.10 -39.62 -26.12 0 0 4.15 14.57 74.96 -27.71 0 0 11.84 -3.37 20.55 -2.29 -0.46 1.83 -51.84 65.26 87.22 -5.29 0 0 18.66 1.53 -7.22 -3.01 0 0 -12.48 -0 0 -9.37 0.29 2.59 64.40 0.89 -6.11 -4.34 0 0 88.89 -2.66 -0.58 -2.16 0 0 2.16 0 0 -9.47 0.83 0.29 69.69 -4.54 -1.51 -4.77 0 0 82.47 -3.81 -3.68 -2.87 0 0 -3.95 0.07 -0.39 -8.65 1.01 -1.70 77.15 -3.19 -1.45 -4.54 0 0 85.23 3.44 3.01 -2.50 0 0 -6.76 0 0 -7.69 0.66 -3.90 89.82 -19.38 -0.23 -3.21 0 0 94.24 -4.64 -8.93 -1.92 0 0 -4.41 0 0 8.73 -0 0 -0.37 12.17 13.71 0 -46.66 0 4.76 20.32 -8.46 0 -40.14 0 1.51 -11.67 8.55 0 -8.88 14.22 0 0 0 -8.73 0 -0 -6.66 -49.42 -14.98 0 -46.66 0 -48.44 84.67 39.19 0 -40.14 0 -0.45 -6.15 -7.86 0 -8.88 14.22 0 0 0 
-0.14 93.80 2.25 -4.23 7.01 0.61 0 7.23 0 2.19 4.62 -6.69 0 16.54 0 5.38 10.83 -13.82 0 34.21 0 -1.95 22.21 3.97 0 6.29 0 1.34 -31.80 7.93 4.06 26.61 -1.12 -5.04 -3.47 -0.95 14.17 0 0 -62.46 -1.07 1.06 26.12 0 0 -4.21 4.87 -105.31 27.71 0 0 -1.33 0.12 -24.38 2.29 -0.46 1.83 52.29 56.96 -87.85 5.29 0 0 -14.09 2.06 5.86 3.01 0 0 12.48 -0 0 9.37 0.29 2.59 -72.18 1.18 -1.47 4.34 0 0 -85.20 -1.49 -0.45 2.16 0 0 -2.16 0 0 9.47 0.83 0.29 -75.71 -3.29 -1.09 4.77 0 0 -78.87 -2.65 2.57 2.87 0 0 3.95 0.07 0.39 8.65 1.01 -1.70 -79.55 -4.70 1.17 4.54 0 0 -81.63 2.10 -1.62 2.50 0 0 6.76 0 -0 7.69 0.66 -3.90 -84.78 -22.48 1.32 3.21 0 0 -89.71 -7.19 11.87 1.92 0 0 4.41 0 0 -4.06 26.61 -1.12 -0.08 -3.92 -3.30 -14.17 0 0 51.27 6.17 -45.28 -26.12 0 0 4.95 15.29 77.33 -27.71 0 0 13.23 -5.11 17.98 -2.29 -0.46 1.83 -51.85 65.26 87.23 -5.29 0 0 18.71 1.52 -7.23 -3.01 0 0 -12.48 -0 0 -9.37 0.29 2.59 62.09 0.82 -6.06 -4.34 0 0 86.58 -2.63 -0.69 -2.16 0 0 2.16 0 0 -9.47 0.83 0.29 67.38 -4.58 -1.52 -4.77 0 0 80.17 -3.66 -3.69 -2.87 0 0 -3.95 0.07 -0.39 -8.65 1.01 -1.70 74.85 -3.13 -1.72 -4.54 0 0 82.92 3.32 3.03 -2.50 0 0 -6.76 0 0 -7.69 0.66 -3.90 87.39 -19.36 -0.75 -3.21 0 0 91.98 -4.29 -8.75 -1.92 0 0 -4.41 0 0 8.73 -0 0 0.61 14.27 18.66 0 -46.66 0 7.22 23.65 -8.40 0 -40.14 0 0.23 6.41 8.20 0 -8.88 14.22 0 0 0 -8.73 0 -0 -0.07 -52.13 -10.24 0 -46.66 0 -7.10 61.64 -1.63 0 -40.14 0 -0.21 -5.45 -7.85 0 -8.88 14.22 0 0 0 
-0.01 95.29 1.80 -4.29 8.65 -0 0 7.23 0 3.27 4.00 -7.73 0 16.54 0 6.67 9.43 -16.28 0 34.21 0 -2.57 21.14 5.30 0 6.29 0 -0.32 -31.46 10.63 4.06 26.61 -1.12 -5.20 -3.49 -0.61 14.17 0 0 -60.72 -2.96 1.69 26.12 0 0 -4.80 3.01 -112.18 27.71 0 0 -2.41 0.38 -24.32 2.29 -0.46 1.83 52.29 56.96 -87.85 5.29 0 0 -14.09 2.06 5.86 3.01 0 0 12.48 -0 0 9.37 0.29 2.59 -73.75 1.22 -1.44 4.34 0 0 -86.77 -1.47 -0.52 2.16 0 0 -2.16 0 0 9.47 0.83 0.29 -77.28 -3.26 -1.10 4.77 0 0 -80.44 -2.72 2.56 2.87 0 0 3.95 0.07 0.39 8.65 1.01 -1.70 -81.13 -4.73 0.99 4.54 0 0 -83.21 2.14 -1.61 2.50 0 0 6.76 0 -0 7.69 0.66 -3.90 -86.46 -22.51 0.96 3.21 0 0 -91.23 -7.51 12.00 1.92 0 0 4.41 0 0 -4.06 26.61 -1.12 -1.87 -3.93 -5.04 -14.17 0 0 50.07 6.52 -47.73 -26.12 0 0 4.16 15.10 78.82 -27.71 0 0 13.90 -4.38 16.62 -2.29 -0.46 1.83 -51.85 65.26 87.23 -5.29 0 0 18.74 1.52 -7.24 -3.01 0 0 -12.48 -0 0 -9.37 0.29 2.59 60.21 0.76 -6.02 -4.34 0 0 84.69 -2.61 -0.78 -2.16 0 0 2.16 0 0 -9.47 0.83 0.29 65.50 -4.61 -1.54 -4.77 0 0 78.29 -3.54 -3.69 -2.87 0 0 -3.95 0.07 -0.39 -8.65 1.01 -1.70 72.96 -3.07 -1.94 -4.54 0 0 81.04 3.22 3.04 -2.50 0 0 -6.76 0 0 -7.69 0.66 -3.90 85.41 -19.33 -1.18 -3.21 0 0 90.14 -4.01 -8.59 -1.92 0 0 -4.41 0 0 8.73 -0 0 -0.83 17.67 17.84 0 -46.66 0 9.86 26.44 -9.57 0 -40.14 0 -0.19 2.51 8.10 0 -8.88 14.22 0 0 0 -8.73 0 -0 2.09 -48.70 -9.15 0 -46.66 0 -1.91 32.36 -8.74 0 -40.14 0 0.82 -2.45 -7.86 0 -8.88 14.22 0 0 0 
